LibreFranklin-Black.ufo
<glyph name="numbersign" format="2">
  <advance width="603"/>
  <unicode hex="0023"/>
  <outline>
    <contour>
      <point x="190" y="31" type="curve"/>
      <point x="289" y="716" type="line"/>
      <point x="291" y="729"/>
      <point x="283" y="735"/>
      <point x="272" y="736" type="curve"/>
      <point x="211" y="742" type="line" smooth="yes"/>
      <point x="200" y="743"/>
      <point x="195" y="733"/>
      <point x="192" y="718" type="curve"/>
      <point x="91" y="29" type="line" smooth="yes"/>
      <point x="89" y="10"/>
      <point x="100" y="8"/>
      <point x="120" y="5" type="curve"/>
      <point x="158" y="0" type="line" smooth="yes"/>
      <point x="183" y="-3"/>
      <point x="187" y="7"/>
    </contour>
    <contour>
      <point x="414" y="31" type="curve"/>
      <point x="513" y="716" type="line"/>
      <point x="515" y="729"/>
      <point x="507" y="735"/>
      <point x="496" y="736" type="curve"/>
      <point x="435" y="742" type="line" smooth="yes"/>
      <point x="424" y="743"/>
      <point x="419" y="733"/>
      <point x="416" y="718" type="curve"/>
      <point x="315" y="29" type="line" smooth="yes"/>
      <point x="313" y="10"/>
      <point x="324" y="8"/>
      <point x="344" y="5" type="curve"/>
      <point x="382" y="0" type="line" smooth="yes"/>
      <point x="407" y="-3"/>
      <point x="411" y="7"/>
    </contour>
    <contour>
      <point x="565" y="250" type="curve"/>
      <point x="565" y="298" type="line"/>
      <point x="565" y="310"/>
      <point x="558" y="318"/>
      <point x="547" y="318" type="curve"/>
      <point x="24" y="318" type="line" smooth="yes"/>
      <point x="12" y="318"/>
      <point x="5" y="310"/>
      <point x="5" y="295" type="curve"/>
      <point x="5" y="247" type="line" smooth="yes"/>
      <point x="5" y="230"/>
      <point x="11" y="222"/>
      <point x="31" y="222" type="curve"/>
      <point x="532" y="222" type="line" smooth="yes"/>
      <point x="555" y="222"/>
      <point x="565" y="230"/>
    </contour>
    <contour>
      <point x="598" y="460" type="curve"/>
      <point x="598" y="508" type="line"/>
      <point x="598" y="520"/>
      <point x="591" y="528"/>
      <point x="580" y="528" type="curve"/>
      <point x="57" y="528" type="line" smooth="yes"/>
      <point x="45" y="528"/>
      <point x="38" y="520"/>
      <point x="38" y="505" type="curve"/>
      <point x="38" y="457" type="line" smooth="yes"/>
      <point x="38" y="440"/>
      <point x="44" y="432"/>
      <point x="64" y="432" type="curve"/>
      <point x="565" y="432" type="line" smooth="yes"/>
      <point x="588" y="432"/>
      <point x="598" y="440"/>
    </contour>
  </outline>
</glyph>
<glyph name="parenright" format="2">
  <advance width="332"/>
  <unicode hex="0029"/>
  <outline>
    <contour>
      <point x="27" y="742" type="line"/>
      <point x="15" y="742"/>
      <point x="13" y="734"/>
      <point x="17" y="727" type="curve"/>
      <point x="83" y="596"/>
      <point x="125" y="443"/>
      <point x="125" y="284" type="curve" smooth="yes"/>
      <point x="125" y="133"/>
      <point x="87" y="2"/>
      <point x="17" y="-148" type="curve" smooth="yes"/>
      <point x="13" y="-156"/>
      <point x="16" y="-165"/>
      <point x="28" y="-165" type="curve" smooth="yes"/>
      <point x="137" y="-165" type="line" smooth="yes"/>
      <point x="147" y="-165"/>
      <point x="152" y="-161"/>
      <point x="158" y="-152" type="curve"/>
      <point x="240" y="-11"/>
      <point x="297" y="114"/>
      <point x="297" y="285" type="curve" smooth="yes"/>
      <point x="297" y="451"/>
      <point x="243" y="603"/>
      <point x="160" y="728" type="curve"/>
      <point x="153" y="737"/>
      <point x="145" y="742"/>
      <point x="132" y="742" type="curve" smooth="yes"/>
      <point x="27" y="742" type="line"/>
    </contour>
  </outline>
</glyph>
<glyph name="comma" format="2">
  <advance width="279"/>
  <unicode hex="002C"/>
  <outline>
    <contour>
      <point x="56" y="-165" type="curve"/>
      <point x="56" y="-165" type="line"/>
      <point x="78" y="-165" type="line" smooth="yes"/>
      <point x="93" y="-165"/>
      <point x="113" y="-157"/>
      <point x="124" y="-142" type="curve"/>
      <point x="238" y="17" type="line" smooth="yes"/>
      <point x="241" y="22"/>
      <point x="242" y="25"/>
      <point x="242" y="32" type="curve"/>
      <point x="242" y="178" type="line" smooth="yes"/>
      <point x="242" y="191"/>
      <point x="236" y="198"/>
      <point x="224" y="198" type="curve"/>
      <point x="51" y="198" type="line" smooth="yes"/>
      <point x="40" y="198"/>
      <point x="32" y="191"/>
      <point x="32" y="176" type="curve"/>
      <point x="32" y="25" type="line" smooth="yes"/>
      <point x="32" y="8"/>
      <point x="39" y="0"/>
      <point x="59" y="0" type="curve"/>
      <point x="81" y="0" type="line" smooth="yes"/>
      <point x="97" y="0"/>
      <point x="99" y="-12"/>
      <point x="90" y="-32" type="curve"/>
      <point x="40" y="-140" type="line" smooth="yes"/>
      <point x="35" y="-152"/>
      <point x="43" y="-165"/>
    </contour>
  </outline>
</glyph>
<glyph name="one" format="2">
  <advance width="537"/>
  <unicode hex="0031"/>
  <outline>
    <contour>
      <point x="486" y="164" type="curve"/>
      <point x="486" y="164" type="line"/>
      <point x="396" y="164" type="line" smooth="yes"/>
      <point x="389" y="164"/>
      <point x="385" y="168"/>
      <point x="385" y="176" type="curve"/>
      <point x="385" y="721" type="line" smooth="yes"/>
      <point x="385" y="734"/>
      <point x="378" y="742"/>
      <point x="367" y="742" type="curve"/>
      <point x="282" y="742" type="line" smooth="yes"/>
      <point x="263" y="742"/>
      <point x="253" y="738"/>
      <point x="232" y="728" type="curve"/>
      <point x="52" y="638" type="line" smooth="yes"/>
      <point x="38" y="631"/>
      <point x="34" y="626"/>
      <point x="34" y="609" type="curve"/>
      <point x="34" y="525" type="line" smooth="yes"/>
      <point x="34" y="505"/>
      <point x="43" y="498"/>
      <point x="61" y="502" type="curve"/>
      <point x="141" y="520" type="line" smooth="yes"/>
      <point x="154" y="523"/>
      <point x="158" y="519"/>
      <point x="158" y="507" type="curve"/>
      <point x="158" y="173" type="line" smooth="yes"/>
      <point x="158" y="167"/>
      <point x="152" y="164"/>
      <point x="146" y="164" type="curve"/>
      <point x="57" y="164" type="line" smooth="yes"/>
      <point x="43" y="164"/>
      <point x="35" y="159"/>
      <point x="35" y="145" type="curve"/>
      <point x="35" y="21" type="line" smooth="yes"/>
      <point x="35" y="8"/>
      <point x="42" y="0"/>
      <point x="59" y="0" type="curve"/>
      <point x="484" y="0" type="line" smooth="yes"/>
      <point x="501" y="0"/>
      <point x="509" y="10"/>
      <point x="509" y="22" type="curve"/>
      <point x="509" y="145" type="line" smooth="yes"/>
      <point x="509" y="159"/>
      <point x="500" y="164"/>
    </contour>
  </outline>
</glyph>
<glyph name="five" format="2">
  <advance width="690"/>
  <unicode hex="0035"/>
  <outline>
    <contour>
      <point x="573" y="742" type="curve"/>
      <point x="140" y="742" type="line"/>
      <point x="105" y="742"/>
      <point x="97" y="735"/>
      <point x="95" y="712" type="curve"/>
      <point x="66" y="403" type="line" smooth="yes"/>
      <point x="64" y="384"/>
      <point x="64" y="373"/>
      <point x="79" y="365" type="curve"/>
      <point x="198" y="301" type="line" smooth="yes"/>
      <point x="213" y="293"/>
      <point x="214" y="293"/>
      <point x="228" y="299" type="curve"/>
      <point x="273" y="319"/>
      <point x="297" y="326"/>
      <point x="328" y="326" type="curve"/>
      <point x="405" y="326"/>
      <point x="439" y="281"/>
      <point x="439" y="235" type="curve"/>
      <point x="439" y="186"/>
      <point x="399" y="146"/>
      <point x="325" y="146" type="curve"/>
      <point x="252" y="146"/>
      <point x="216" y="185"/>
      <point x="176" y="232" type="curve"/>
      <point x="167" y="242"/>
      <point x="156" y="245"/>
      <point x="143" y="236" type="curve"/>
      <point x="35" y="163" type="line" smooth="yes"/>
      <point x="16" y="151"/>
      <point x="23" y="136"/>
      <point x="33" y="121" type="curve"/>
      <point x="84" y="45"/>
      <point x="203" y="-10"/>
      <point x="349" y="-10" type="curve"/>
      <point x="538" y="-10"/>
      <point x="662" y="83"/>
      <point x="662" y="242" type="curve"/>
      <point x="662" y="395"/>
      <point x="546" y="484"/>
      <point x="385" y="484" type="curve"/>
      <point x="340" y="484"/>
      <point x="310" y="477"/>
      <point x="257" y="463" type="curve"/>
      <point x="247" y="460"/>
      <point x="239" y="465"/>
      <point x="241" y="477" type="curve"/>
      <point x="249" y="544" type="line" smooth="yes"/>
      <point x="250" y="557"/>
      <point x="257" y="562"/>
      <point x="270" y="562" type="curve"/>
      <point x="569" y="562" type="line" smooth="yes"/>
      <point x="588" y="562"/>
      <point x="596" y="568"/>
      <point x="597" y="585" type="curve"/>
      <point x="603" y="713" type="line" smooth="yes"/>
      <point x="604" y="737"/>
      <point x="602" y="742"/>
    </contour>
  </outline>
</glyph>
<glyph name="C" format="2">
  <advance width="737"/>
  <unicode hex="0043"/>
  <anchor x="385" y="742" name="top"/>
  <anchor x="383" y="0" name="bottom"/>
  <outline>
    <contour>
      <point x="385" y="752" type="curve"/>
      <point x="385" y="752" type="line"/>
      <point x="168" y="752"/>
      <point x="30" y="606"/>
      <point x="30" y="381" type="curve"/>
      <point x="30" y="155"/>
      <point x="168" y="-10"/>
      <point x="383" y="-10" type="curve"/>
      <point x="614" y="-10"/>
      <point x="700" y="167"/>
      <point x="710" y="221" type="curve"/>
      <point x="714" y="247"/>
      <point x="703" y="252"/>
      <point x="696" y="254" type="curve"/>
      <point x="571" y="279" type="line" smooth="yes"/>
      <point x="555" y="282"/>
      <point x="546" y="279"/>
      <point x="543" y="271" type="curve"/>
      <point x="508" y="183"/>
      <point x="457" y="154"/>
      <point x="390" y="154" type="curve"/>
      <point x="309" y="154"/>
      <point x="268" y="212"/>
      <point x="268" y="377" type="curve"/>
      <point x="268" y="540"/>
      <point x="316" y="598"/>
      <point x="391" y="598" type="curve"/>
      <point x="457" y="598"/>
      <point x="483" y="553"/>
      <point x="494" y="495" type="curve"/>
      <point x="497" y="481"/>
      <point x="498" y="476"/>
      <point x="513" y="476" type="curve"/>
      <point x="688" y="487" type="line"/>
      <point x="703" y="489"/>
      <point x="707" y="494"/>
      <point x="701" y="522" type="curve"/>
      <point x="675" y="655"/>
      <point x="554" y="752"/>
    </contour>
  </outline>
</glyph>
<glyph name="M" format="2">
  <advance width="977"/>
  <unicode hex="004D"/>
  <outline>
    <contour>
      <point x="78" y="0" type="curve"/>
      <point x="78" y="0" type="line"/>
      <point x="211" y="0" type="line" smooth="yes"/>
      <point x="229" y="0"/>
      <point x="233" y="4"/>
      <point x="233" y="22" type="curve"/>
      <point x="233" y="464" type="line" smooth="yes"/>
      <point x="233" y="477"/>
      <point x="240" y="481"/>
      <point x="245" y="465" type="curve"/>
      <point x="389" y="18" type="line" smooth="yes"/>
      <point x="393" y="6"/>
      <point x="401" y="0"/>
      <point x="413" y="0" type="curve"/>
      <point x="518" y="0" type="line" smooth="yes"/>
      <point x="529" y="0"/>
      <point x="538" y="7"/>
      <point x="542" y="18" type="curve"/>
      <point x="686" y="473" type="line" smooth="yes"/>
      <point x="690" y="485"/>
      <point x="698" y="485"/>
      <point x="698" y="474" type="curve"/>
      <point x="698" y="25" type="line" smooth="yes"/>
      <point x="698" y="8"/>
      <point x="704" y="0"/>
      <point x="724" y="0" type="curve"/>
      <point x="893" y="0" type="line" smooth="yes"/>
      <point x="916" y="0"/>
      <point x="925" y="8"/>
      <point x="925" y="29" type="curve"/>
      <point x="925" y="721" type="line" smooth="yes"/>
      <point x="925" y="734"/>
      <point x="919" y="742"/>
      <point x="907" y="742" type="curve"/>
      <point x="618" y="742" type="line" smooth="yes"/>
      <point x="604" y="742"/>
      <point x="596" y="731"/>
      <point x="591" y="713" type="curve"/>
      <point x="498" y="406" type="line" smooth="yes"/>
      <point x="495" y="397"/>
      <point x="489" y="395"/>
      <point x="485" y="406" type="curve"/>
      <point x="381" y="724" type="line" smooth="yes"/>
      <point x="376" y="738"/>
      <point x="370" y="742"/>
      <point x="353" y="742" type="curve"/>
      <point x="73" y="742" type="line" smooth="yes"/>
      <point x="58" y="742"/>
      <point x="52" y="735"/>
      <point x="52" y="719" type="curve"/>
      <point x="52" y="28" type="line" smooth="yes"/>
      <point x="52" y="11"/>
      <point x="62" y="0"/>
    </contour>
  </outline>
</glyph>
<glyph name="S" format="2">
  <advance width="701"/>
  <unicode hex="0053"/>
  <anchor x="355" y="742" name="top"/>
  <anchor x="355" y="0" name="bottom"/>
  <outline>
    <contour>
      <point x="494" y="543" type="curve"/>
      <point x="494" y="543" type="line"/>
      <point x="508" y="529"/>
      <point x="514" y="528"/>
      <point x="524" y="535" type="curve"/>
      <point x="633" y="614" type="line" smooth="yes"/>
      <point x="646" y="624"/>
      <point x="639" y="635"/>
      <point x="633" y="644" type="curve"/>
      <point x="587" y="709"/>
      <point x="474" y="752"/>
      <point x="355" y="752" type="curve"/>
      <point x="166" y="752"/>
      <point x="47" y="645"/>
      <point x="47" y="515" type="curve"/>
      <point x="47" y="410"/>
      <point x="123" y="323"/>
      <point x="243" y="293" type="curve"/>
      <point x="395" y="256" type="line" smooth="yes"/>
      <point x="438" y="246"/>
      <point x="458" y="226"/>
      <point x="458" y="202" type="curve"/>
      <point x="458" y="165"/>
      <point x="410" y="144"/>
      <point x="337" y="144" type="curve"/>
      <point x="258" y="144"/>
      <point x="219" y="167"/>
      <point x="175" y="224" type="curve"/>
      <point x="167" y="234"/>
      <point x="155" y="238"/>
      <point x="137" y="226" type="curve"/>
      <point x="34" y="155" type="line" smooth="yes"/>
      <point x="20" y="144"/>
      <point x="20" y="136"/>
      <point x="28" y="122" type="curve"/>
      <point x="75" y="43"/>
      <point x="208" y="-10"/>
      <point x="354" y="-10" type="curve"/>
      <point x="551" y="-10"/>
      <point x="674" y="86"/>
      <point x="674" y="234" type="curve"/>
      <point x="674" y="337"/>
      <point x="616" y="421"/>
      <point x="491" y="452" type="curve"/>
      <point x="325" y="495" type="line" smooth="yes"/>
      <point x="275" y="507"/>
      <point x="261" y="528"/>
      <point x="261" y="546" type="curve"/>
      <point x="261" y="571"/>
      <point x="288" y="597"/>
      <point x="363" y="597" type="curve"/>
      <point x="441" y="597"/>
      <point x="470" y="569"/>
    </contour>
  </outline>
</glyph>
<glyph name="X" format="2">
  <advance width="756"/>
  <unicode hex="0058"/>
  <outline>
    <contour>
      <point x="719" y="51" type="curve"/>
      <point x="719" y="51" type="line"/>
      <point x="503" y="383" type="line" smooth="yes"/>
      <point x="493" y="398"/>
      <point x="492" y="405"/>
      <point x="501" y="419" type="curve"/>
      <point x="690" y="709" type="line" smooth="yes"/>
      <point x="700" y="724"/>
      <point x="701" y="742"/>
      <point x="677" y="742" type="curve"/>
      <point x="522" y="742" type="line" smooth="yes"/>
      <point x="500" y="742"/>
      <point x="491" y="735"/>
      <point x="483" y="721" type="curve"/>
      <point x="392" y="560" type="line" smooth="yes"/>
      <point x="386" y="549"/>
      <point x="376" y="549"/>
      <point x="370" y="560" type="curve"/>
      <point x="279" y="721" type="line" smooth="yes"/>
      <point x="271" y="735"/>
      <point x="261" y="742"/>
      <point x="239" y="742" type="curve"/>
      <point x="50" y="742" type="line" smooth="yes"/>
      <point x="27" y="742"/>
      <point x="24" y="722"/>
      <point x="34" y="707" type="curve"/>
      <point x="236" y="392" type="line" smooth="yes"/>
      <point x="245" y="377"/>
      <point x="246" y="371"/>
      <point x="236" y="356" type="curve"/>
      <point x="39" y="51" type="line" smooth="yes"/>
      <point x="13" y="11"/>
      <point x="24" y="0"/>
      <point x="52" y="0" type="curve"/>
      <point x="194" y="0" type="line" smooth="yes"/>
      <point x="214" y="0"/>
      <point x="229" y="5"/>
      <point x="237" y="20" type="curve"/>
      <point x="345" y="209" type="line" smooth="yes"/>
      <point x="356" y="228"/>
      <point x="362" y="227"/>
      <point x="373" y="208" type="curve"/>
      <point x="483" y="20" type="line" smooth="yes"/>
      <point x="491" y="6"/>
      <point x="505" y="0"/>
      <point x="525" y="0" type="curve"/>
      <point x="705" y="0" type="line" smooth="yes"/>
      <point x="733" y="0"/>
      <point x="744" y="12"/>
    </contour>
  </outline>
</glyph>
<glyph name="bracketright" format="2">
  <advance width="336"/>
  <unicode hex="005D"/>
  <outline>
    <contour>
      <point x="290" y="720" type="line"/>
      <point x="290" y="735"/>
      <point x="283" y="742"/>
      <point x="264" y="742" type="curve" smooth="yes"/>
      <point x="30" y="742" type="line" smooth="yes"/>
      <point x="19" y="742"/>
      <point x="15" y="738"/>
      <point x="15" y="729" type="curve" smooth="yes"/>
      <point x="15" y="649" type="line" smooth="yes"/>
      <point x="15" y="640"/>
      <point x="21" y="635"/>
      <point x="30" y="635" type="curve" smooth="yes"/>
      <point x="106" y="635" type="line" smooth="yes"/>
      <point x="123" y="635"/>
      <point x="131" y="627"/>
      <point x="131" y="608" type="curve" smooth="yes"/>
      <point x="131" y="-37" type="line" smooth="yes"/>
      <point x="131" y="-55"/>
      <point x="126" y="-58"/>
      <point x="110" y="-58" type="curve" smooth="yes"/>
      <point x="33" y="-58" type="line" smooth="yes"/>
      <point x="21" y="-58"/>
      <point x="15" y="-63"/>
      <point x="15" y="-74" type="curve" smooth="yes"/>
      <point x="15" y="-147" type="line" smooth="yes"/>
      <point x="15" y="-160"/>
      <point x="20" y="-165"/>
      <point x="33" y="-165" type="curve" smooth="yes"/>
      <point x="261" y="-165" type="line" smooth="yes"/>
      <point x="279" y="-165"/>
      <point x="290" y="-155"/>
      <point x="290" y="-139" type="curve" smooth="yes"/>
      <point x="290" y="720" type="line"/>
    </contour>
  </outline>
</glyph>
<glyph name="c" format="2">
  <advance width="556"/>
  <unicode hex="0063"/>
  <anchor x="298" y="530" name="top"/>
  <anchor x="297" y="0" name="bottom"/>
  <outline>
    <contour>
      <point x="298" y="540" type="curve"/>
      <point x="298" y="540" type="line"/>
      <point x="140" y="540"/>
      <point x="21" y="428"/>
      <point x="21" y="263" type="curve"/>
      <point x="21" y="101"/>
      <point x="138" y="-10"/>
      <point x="298" y="-10" type="curve"/>
      <point x="460" y="-10"/>
      <point x="526" y="105"/>
      <point x="536" y="157" type="curve"/>
      <point x="540" y="172"/>
      <point x="538" y="178"/>
      <point x="527" y="180" type="curve"/>
      <point x="433" y="198" type="line" smooth="yes"/>
      <point x="420" y="200"/>
      <point x="416" y="198"/>
      <point x="413" y="193" type="curve"/>
      <point x="388" y="148"/>
      <point x="369" y="114"/>
      <point x="314" y="114" type="curve"/>
      <point x="257" y="114"/>
      <point x="223" y="154"/>
      <point x="223" y="265" type="curve"/>
      <point x="223" y="372"/>
      <point x="254" y="414"/>
      <point x="303" y="414" type="curve"/>
      <point x="351" y="414"/>
      <point x="360" y="376"/>
      <point x="364" y="351" type="curve"/>
      <point x="366" y="340"/>
      <point x="370" y="336"/>
      <point x="381" y="337" type="curve"/>
      <point x="518" y="344" type="line" smooth="yes"/>
      <point x="535" y="345"/>
      <point x="541" y="353"/>
      <point x="536" y="370" type="curve"/>
      <point x="520" y="447"/>
      <point x="441" y="540"/>
    </contour>
  </outline>
</glyph>
<glyph name="o" format="2">
  <advance width="600"/>
  <unicode hex="006F"/>
  <anchor x="300" y="265" name="center"/>
  <anchor x="378" y="10" name="ogonek"/>
  <anchor x="300" y="530" name="top"/>
  <anchor x="459" y="530" name="topright"/>
  <anchor x="297" y="0" name="bottom"/>
  <outline>
    <contour>
      <point x="299" y="-10" type="curve"/>
      <point x="299" y="-10" type="line"/>
      <point x="464" y="-10"/>
      <point x="579" y="104"/>
      <point x="579" y="262" type="curve"/>
      <point x="579" y="423"/>
      <point x="467" y="540"/>
      <point x="300" y="540" type="curve"/>
      <point x="142" y="540"/>
      <point x="21" y="429"/>
      <point x="21" y="262" type="curve"/>
      <point x="21" y="103"/>
      <point x="135" y="-10"/>
    </contour>
    <contour>
      <point x="300" y="118" type="curve"/>
      <point x="300" y="118" type="line"/>
      <point x="247" y="118"/>
      <point x="223" y="162"/>
      <point x="223" y="266" type="curve"/>
      <point x="223" y="371"/>
      <point x="247" y="416"/>
      <point x="300" y="416" type="curve"/>
      <point x="354" y="416"/>
      <point x="377" y="371"/>
      <point x="377" y="266" type="curve"/>
      <point x="377" y="163"/>
      <point x="354" y="118"/>
    </contour>
  </outline>
</glyph>
<glyph name="p" format="2">
  <advance width="617"/>
  <unicode hex="0070"/>
  <outline>
    <contour>
      <point x="216" y="530" type="curve"/>
      <point x="216" y="530" type="line"/>
      <point x="68" y="530" type="line" smooth="yes"/>
      <point x="47" y="530"/>
      <point x="41" y="521"/>
      <point x="41" y="504" type="curve"/>
      <point x="41" y="-143" type="line" smooth="yes"/>
      <point x="41" y="-158"/>
      <point x="49" y="-165"/>
      <point x="60" y="-165" type="curve"/>
      <point x="223" y="-165" type="line" smooth="yes"/>
      <point x="235" y="-165"/>
      <point x="241" y="-158"/>
      <point x="241" y="-145" type="curve"/>
      <point x="241" y="36" type="line" smooth="yes"/>
      <point x="241" y="56"/>
      <point x="246" y="55"/>
      <point x="262" y="41" type="curve"/>
      <point x="304" y="1"/>
      <point x="345" y="-10"/>
      <point x="390" y="-10" type="curve"/>
      <point x="502" y="-10"/>
      <point x="593" y="65"/>
      <point x="593" y="267" type="curve"/>
      <point x="593" y="454"/>
      <point x="508" y="540"/>
      <point x="397" y="540" type="curve"/>
      <point x="335" y="540"/>
      <point x="296" y="519"/>
      <point x="257" y="483" type="curve"/>
      <point x="250" y="477"/>
      <point x="242" y="477"/>
      <point x="242" y="485" type="curve"/>
      <point x="242" y="506" type="line" smooth="yes"/>
      <point x="242" y="523"/>
      <point x="235" y="530"/>
    </contour>
    <contour>
      <point x="241" y="151" type="curve"/>
      <point x="241" y="151" type="line"/>
      <point x="241" y="363" type="line" smooth="yes"/>
      <point x="241" y="395"/>
      <point x="272" y="419"/>
      <point x="311" y="419" type="curve"/>
      <point x="363" y="419"/>
      <point x="391" y="389"/>
      <point x="391" y="273" type="curve"/>
      <point x="391" y="145"/>
      <point x="361" y="111"/>
      <point x="311" y="111" type="curve"/>
      <point x="279" y="111"/>
      <point x="258" y="127"/>
    </contour>
  </outline>
</glyph>
<glyph name="y" format="2">
  <advance width="589"/>
  <unicode hex="0079"/>
  <anchor x="326" y="530" name="top"/>
  <anchor x="447" y="0" name="bottom"/>
  <outline>
    <contour>
      <point x="102" y="-165" type="curve"/>
      <point x="102" y="-165" type="line"/>
      <point x="250" y="-165"/>
      <point x="309" y="-136"/>
      <point x="378" y="31" type="curve"/>
      <point x="573" y="501" type="line" smooth="yes"/>
      <point x="579" y="515"/>
      <point x="572" y="530"/>
      <point x="556" y="530" type="curve"/>
      <point x="444" y="530" type="line" smooth="yes"/>
      <point x="432" y="530"/>
      <point x="423" y="521"/>
      <point x="418" y="510" type="curve"/>
      <point x="332" y="270" type="line" smooth="yes"/>
      <point x="326" y="256"/>
      <point x="319" y="258"/>
      <point x="315" y="270" type="curve"/>
      <point x="230" y="510" type="line" smooth="yes"/>
      <point x="226" y="521"/>
      <point x="216" y="530"/>
      <point x="204" y="530" type="curve"/>
      <point x="35" y="530" type="line" smooth="yes"/>
      <point x="19" y="530"/>
      <point x="10" y="515"/>
      <point x="16" y="501" type="curve"/>
      <point x="210" y="31" type="line" smooth="yes"/>
      <point x="220" y="7"/>
      <point x="191" y="-22"/>
      <point x="145" y="-22" type="curve"/>
      <point x="74" y="-22" type="line" smooth="yes"/>
      <point x="52" y="-22"/>
      <point x="46" y="-33"/>
      <point x="46" y="-41" type="curve"/>
      <point x="46" y="-143" type="line" smooth="yes"/>
      <point x="46" y="-162"/>
      <point x="60" y="-165"/>
    </contour>
  </outline>
</glyph>
<glyph name="z" format="2">
  <advance width="544"/>
  <unicode hex="007A"/>
  <anchor x="278" y="530" name="top"/>
  <outline>
    <contour>
      <point x="45" y="0" type="curve"/>
      <point x="45" y="0" type="line"/>
      <point x="495" y="0" type="line" smooth="yes"/>
      <point x="512" y="0"/>
      <point x="520" y="10"/>
      <point x="520" y="22" type="curve"/>
      <point x="520" y="105" type="line" smooth="yes"/>
      <point x="520" y="119"/>
      <point x="511" y="124"/>
      <point x="497" y="124" type="curve"/>
      <point x="292" y="124" type="line" smooth="yes"/>
      <point x="278" y="124"/>
      <point x="275" y="131"/>
      <point x="284" y="143" type="curve"/>
      <point x="502" y="418" type="line" smooth="yes"/>
      <point x="514" y="435"/>
      <point x="519" y="444"/>
      <point x="519" y="459" type="curve"/>
      <point x="519" y="511" type="line" smooth="yes"/>
      <point x="519" y="522"/>
      <point x="512" y="530"/>
      <point x="500" y="530" type="curve"/>
      <point x="59" y="530" type="line" smooth="yes"/>
      <point x="48" y="530"/>
      <point x="41" y="522"/>
      <point x="41" y="510" type="curve"/>
      <point x="41" y="431" type="line" smooth="yes"/>
      <point x="41" y="413"/>
      <point x="46" y="408"/>
      <point x="63" y="408" type="curve"/>
      <point x="243" y="408" type="line" smooth="yes"/>
      <point x="257" y="408"/>
      <point x="261" y="403"/>
      <point x="253" y="392" type="curve"/>
      <point x="40" y="121" type="line" smooth="yes"/>
      <point x="21" y="96"/>
      <point x="19" y="91"/>
      <point x="19" y="70" type="curve"/>
      <point x="19" y="25" type="line" smooth="yes"/>
      <point x="19" y="5"/>
      <point x="25" y="0"/>
    </contour>
  </outline>
</glyph>
<glyph name="degree" format="2">
  <advance width="464"/>
  <unicode hex="00B0"/>
  <outline>
    <contour>
      <point x="414" y="675" type="curve"/>
      <point x="414" y="675" type="line"/>
      <point x="414" y="781"/>
      <point x="336" y="857"/>
      <point x="232" y="857" type="curve"/>
      <point x="127" y="857"/>
      <point x="50" y="781"/>
      <point x="50" y="675" type="curve"/>
      <point x="50" y="568"/>
      <point x="127" y="493"/>
      <point x="232" y="493" type="curve"/>
      <point x="336" y="493"/>
      <point x="414" y="568"/>
    </contour>
    <contour>
      <point x="302" y="674" type="curve"/>
      <point x="302" y="674" type="line"/>
      <point x="302" y="630"/>
      <point x="274" y="599"/>
      <point x="231" y="599" type="curve"/>
      <point x="187" y="599"/>
      <point x="160" y="630"/>
      <point x="159" y="674" type="curve"/>
      <point x="158" y="717"/>
      <point x="187" y="748"/>
      <point x="230" y="748" type="curve"/>
      <point x="274" y="748"/>
      <point x="302" y="717"/>
    </contour>
  </outline>
</glyph>
<glyph name="plusminus" format="2">
  <advance width="600"/>
  <unicode hex="00B1"/>
  <outline>
    <contour>
      <point x="562" y="43" type="curve"/>
      <point x="562" y="136" type="line"/>
      <point x="562" y="148"/>
      <point x="555" y="156"/>
      <point x="544" y="156" type="curve"/>
      <point x="59" y="156" type="line" smooth="yes"/>
      <point x="47" y="156"/>
      <point x="40" y="148"/>
      <point x="40" y="133" type="curve"/>
      <point x="40" y="40" type="line" smooth="yes"/>
      <point x="40" y="23"/>
      <point x="46" y="15"/>
      <point x="66" y="15" type="curve"/>
      <point x="529" y="15" type="line" smooth="yes"/>
      <point x="552" y="15"/>
      <point x="562" y="23"/>
    </contour>
    <contour>
      <point x="562" y="426" type="curve"/>
      <point x="562" y="519" type="line"/>
      <point x="562" y="531"/>
      <point x="555" y="539"/>
      <point x="544" y="539" type="curve"/>
      <point x="59" y="539" type="line" smooth="yes"/>
      <point x="47" y="539"/>
      <point x="40" y="531"/>
      <point x="40" y="516" type="curve"/>
      <point x="40" y="423" type="line" smooth="yes"/>
      <point x="40" y="406"/>
      <point x="46" y="398"/>
      <point x="66" y="398" type="curve"/>
      <point x="529" y="398" type="line" smooth="yes"/>
      <point x="552" y="398"/>
      <point x="562" y="406"/>
    </contour>
    <contour>
      <point x="259" y="208" type="curve"/>
      <point x="352" y="208" type="line"/>
      <point x="364" y="208"/>
      <point x="372" y="215"/>
      <point x="372" y="226" type="curve"/>
      <point x="372" y="711" type="line" smooth="yes"/>
      <point x="372" y="723"/>
      <point x="364" y="730"/>
      <point x="349" y="730" type="curve"/>
      <point x="256" y="730" type="line" smooth="yes"/>
      <point x="239" y="730"/>
      <point x="231" y="724"/>
      <point x="231" y="704" type="curve"/>
      <point x="231" y="241" type="line" smooth="yes"/>
      <point x="231" y="218"/>
      <point x="239" y="208"/>
    </contour>
  </outline>
</glyph>
<glyph name="ordmasculine" format="2">
  <advance width="391"/>
  <unicode hex="00BA"/>
  <outline>
    <contour>
      <point x="195" y="752" type="curve"/>
      <point x="195" y="752" type="line"/>
      <point x="97" y="752"/>
      <point x="21" y="682"/>
      <point x="21" y="578" type="curve"/>
      <point x="21" y="479"/>
      <point x="92" y="408"/>
      <point x="195" y="408" type="curve"/>
      <point x="298" y="408"/>
      <point x="370" y="479"/>
      <point x="370" y="578" type="curve"/>
      <point x="370" y="679"/>
      <point x="300" y="752"/>
    </contour>
    <contour>
      <point x="195" y="674" type="curve"/>
      <point x="195" y="674" type="line"/>
      <point x="229" y="674"/>
      <point x="244" y="646"/>
      <point x="244" y="581" type="curve"/>
      <point x="244" y="516"/>
      <point x="229" y="488"/>
      <point x="195" y="488" type="curve"/>
      <point x="162" y="488"/>
      <point x="147" y="516"/>
      <point x="147" y="581" type="curve"/>
      <point x="147" y="646"/>
      <point x="162" y="674"/>
    </contour>
  </outline>
</glyph>
<glyph name="guillemetright" format="2">
  <advance width="513"/>
  <unicode hex="00BB"/>
  <outline>
    <contour>
      <point x="109" y="244" type="curve"/>
      <point x="109" y="244" type="line"/>
      <point x="51" y="73" type="line" smooth="yes"/>
      <point x="48" y="64"/>
      <point x="53" y="60"/>
      <point x="67" y="60" type="curve"/>
      <point x="140" y="60" type="line" smooth="yes"/>
      <point x="147" y="60"/>
      <point x="153" y="64"/>
      <point x="156" y="70" type="curve"/>
      <point x="248" y="235" type="line" smooth="yes"/>
      <point x="257" y="250"/>
      <point x="256" y="265"/>
      <point x="249" y="278" type="curve"/>
      <point x="156" y="453" type="line" smooth="yes"/>
      <point x="151" y="462"/>
      <point x="147" y="463"/>
      <point x="139" y="463" type="curve"/>
      <point x="64" y="463" type="line" smooth="yes"/>
      <point x="55" y="463"/>
      <point x="48" y="458"/>
      <point x="52" y="447" type="curve"/>
      <point x="109" y="270" type="line" smooth="yes"/>
      <point x="112" y="261"/>
      <point x="112" y="253"/>
    </contour>
    <contour>
      <point x="317" y="244" type="curve"/>
      <point x="317" y="244" type="line"/>
      <point x="259" y="73" type="line" smooth="yes"/>
      <point x="256" y="64"/>
      <point x="261" y="60"/>
      <point x="275" y="60" type="curve"/>
      <point x="348" y="60" type="line" smooth="yes"/>
      <point x="355" y="60"/>
      <point x="361" y="64"/>
      <point x="364" y="70" type="curve"/>
      <point x="456" y="235" type="line" smooth="yes"/>
      <point x="465" y="250"/>
      <point x="464" y="265"/>
      <point x="457" y="278" type="curve"/>
      <point x="364" y="453" type="line" smooth="yes"/>
      <point x="359" y="462"/>
      <point x="355" y="463"/>
      <point x="347" y="463" type="curve"/>
      <point x="272" y="463" type="line" smooth="yes"/>
      <point x="263" y="463"/>
      <point x="256" y="458"/>
      <point x="260" y="447" type="curve"/>
      <point x="317" y="270" type="line" smooth="yes"/>
      <point x="320" y="261"/>
      <point x="320" y="253"/>
    </contour>
  </outline>
</glyph>
<glyph name="idotless" format="2">
  <advance width="282"/>
  <unicode hex="0131"/>
  <anchor x="213" y="9" name="ogonek"/>
  <anchor x="145" y="530" name="top"/>
  <outline>
    <contour>
      <point x="241" y="29" type="curve"/>
      <point x="241" y="510" type="line"/>
      <point x="241" y="522"/>
      <point x="234" y="530"/>
      <point x="223" y="530" type="curve"/>
      <point x="60" y="530" type="line" smooth="yes"/>
      <point x="48" y="530"/>
      <point x="41" y="522"/>
      <point x="41" y="507" type="curve"/>
      <point x="41" y="25" type="line" smooth="yes"/>
      <point x="41" y="8"/>
      <point x="47" y="0"/>
      <point x="67" y="0" type="curve"/>
      <point x="208" y="0" type="line" smooth="yes"/>
      <point x="231" y="0"/>
      <point x="241" y="8"/>
    </contour>
  </outline>
</glyph>
<glyph name="Tbar" format="2">
  <advance width="704"/>
  <unicode hex="0166"/>
  <outline>
    <contour>
      <point x="554" y="309" type="curve"/>
      <point x="554" y="402" type="line"/>
      <point x="554" y="414"/>
      <point x="547" y="422"/>
      <point x="536" y="422" type="curve"/>
      <point x="135" y="422" type="line" smooth="yes"/>
      <point x="123" y="422"/>
      <point x="116" y="414"/>
      <point x="116" y="399" type="curve"/>
      <point x="116" y="306" type="line" smooth="yes"/>
      <point x="116" y="289"/>
      <point x="122" y="281"/>
      <point x="142" y="281" type="curve"/>
      <point x="521" y="281" type="line" smooth="yes"/>
      <point x="544" y="281"/>
      <point x="554" y="289"/>
    </contour>
    <component base="T"/>
  </outline>
</glyph>
<glyph name="gravecomb" format="2">
  <unicode hex="0300"/>
  <anchor x="-160" y="530" name="_top"/>
  <outline>
    <contour>
      <point x="-279" y="739" type="curve"/>
      <point x="-279" y="739" type="line"/>
      <point x="-307" y="661" type="line" smooth="yes"/>
      <point x="-312" y="646"/>
      <point x="-308" y="634"/>
      <point x="-288" y="629" type="curve"/>
      <point x="-55" y="573" type="line" smooth="yes"/>
      <point x="-38" y="569"/>
      <point x="-31" y="572"/>
      <point x="-26" y="586" type="curve"/>
      <point x="-11" y="629" type="line" smooth="yes"/>
      <point x="-7" y="641"/>
      <point x="-10" y="649"/>
      <point x="-19" y="653" type="curve"/>
      <point x="-258" y="751" type="line" smooth="yes"/>
      <point x="-267" y="755"/>
      <point x="-275" y="750"/>
    </contour>
  </outline>
</glyph>
<glyph name="breveinvertedcomb" format="2">
  <unicode hex="0311"/>
  <anchor x="-207" y="530" name="_top"/>
  <anchor x="-207" y="742" name="top"/>
  <outline>
    <contour>
      <point x="-24" y="593" type="line"/>
      <point x="-10" y="593"/>
      <point x="-7" y="600"/>
      <point x="-11" y="611" type="curve" smooth="yes"/>
      <point x="-43" y="699"/>
      <point x="-119" y="742"/>
      <point x="-207" y="742" type="curve" smooth="yes"/>
      <point x="-294" y="742"/>
      <point x="-381" y="704"/>
      <point x="-405" y="609" type="curve" smooth="yes"/>
      <point x="-407" y="601"/>
      <point x="-404" y="593"/>
      <point x="-394" y="593" type="curve" smooth="yes"/>
      <point x="-317" y="593" type="line" smooth="yes"/>
      <point x="-305" y="593"/>
      <point x="-301" y="596"/>
      <point x="-293" y="607" type="curve" smooth="yes"/>
      <point x="-274" y="633"/>
      <point x="-240" y="653"/>
      <point x="-207" y="653" type="curve" smooth="yes"/>
      <point x="-177" y="653"/>
      <point x="-139" y="634"/>
      <point x="-122" y="606" type="curve" smooth="yes"/>
      <point x="-115" y="594"/>
      <point x="-110" y="593"/>
      <point x="-102" y="593" type="curve" smooth="yes"/>
      <point x="-24" y="593" type="line"/>
    </contour>
  </outline>
</glyph>
<glyph name="pi" format="2">
  <advance width="676"/>
  <unicode hex="03C0"/>
  <outline>
    <contour>
      <point x="601" y="395" type="curve"/>
      <point x="646" y="395" type="line"/>
      <point x="657" y="395"/>
      <point x="666" y="402"/>
      <point x="666" y="418" type="curve"/>
      <point x="666" y="508" type="line" smooth="yes"/>
      <point x="666" y="523"/>
      <point x="661" y="530"/>
      <point x="646" y="530" type="curve"/>
      <point x="33" y="530" type="line" smooth="yes"/>
      <point x="18" y="530"/>
      <point x="10" y="524"/>
      <point x="10" y="510" type="curve"/>
      <point x="10" y="415" type="line" smooth="yes"/>
      <point x="10" y="402"/>
      <point x="18" y="395"/>
      <point x="32" y="395" type="curve"/>
      <point x="83" y="395" type="line" smooth="yes"/>
      <point x="89" y="395"/>
      <point x="92" y="391"/>
      <point x="92" y="385" type="curve"/>
      <point x="92" y="294"/>
      <point x="68" y="127"/>
      <point x="40" y="17" type="curve"/>
      <point x="37" y="6"/>
      <point x="43" y="0"/>
      <point x="53" y="0" type="curve"/>
      <point x="212" y="0" type="line" smooth="yes"/>
      <point x="220" y="0"/>
      <point x="225" y="4"/>
      <point x="228" y="12" type="curve"/>
      <point x="259" y="105"/>
      <point x="284" y="289"/>
      <point x="284" y="386" type="curve"/>
      <point x="284" y="392"/>
      <point x="287" y="395"/>
      <point x="294" y="395" type="curve"/>
      <point x="381" y="395" type="line" smooth="yes"/>
      <point x="391" y="395"/>
      <point x="395" y="389"/>
      <point x="395" y="382" type="curve"/>
      <point x="395" y="19" type="line" smooth="yes"/>
      <point x="395" y="6"/>
      <point x="402" y="0"/>
      <point x="413" y="0" type="curve"/>
      <point x="568" y="0" type="line" smooth="yes"/>
      <point x="580" y="0"/>
      <point x="586" y="6"/>
      <point x="586" y="19" type="curve"/>
      <point x="586" y="381" type="line" smooth="yes"/>
      <point x="586" y="389"/>
      <point x="591" y="395"/>
    </contour>
  </outline>
</glyph>
<glyph name="dong" format="2">
  <advance width="542"/>
  <unicode hex="20AB"/>
  <outline>
    <contour>
      <point x="338" y="136" type="curve"/>
      <point x="338" y="136" type="line"/>
      <point x="457" y="136" type="line" smooth="yes"/>
      <point x="475" y="136"/>
      <point x="480" y="143"/>
      <point x="480" y="157" type="curve"/>
      <point x="480" y="723" type="line" smooth="yes"/>
      <point x="480" y="736"/>
      <point x="473" y="742"/>
      <point x="464" y="742" type="curve"/>
      <point x="330" y="742" type="line" smooth="yes"/>
      <point x="320" y="742"/>
      <point x="315" y="736"/>
      <point x="315" y="725" type="curve"/>
      <point x="315" y="546" type="line" smooth="yes"/>
      <point x="315" y="533"/>
      <point x="308" y="533"/>
      <point x="299" y="539" type="curve"/>
      <point x="266" y="572"/>
      <point x="234" y="582"/>
      <point x="197" y="582" type="curve"/>
      <point x="106" y="582"/>
      <point x="23" y="492"/>
      <point x="23" y="353" type="curve"/>
      <point x="23" y="204"/>
      <point x="91" y="128"/>
      <point x="189" y="128" type="curve"/>
      <point x="240" y="128"/>
      <point x="272" y="144"/>
      <point x="304" y="174" type="curve"/>
      <point x="310" y="179"/>
      <point x="317" y="178"/>
      <point x="317" y="171" type="curve"/>
      <point x="317" y="155" type="line" smooth="yes"/>
      <point x="317" y="141"/>
      <point x="327" y="136"/>
    </contour>
    <contour>
      <point x="314" y="448" type="curve"/>
      <point x="314" y="448" type="line"/>
      <point x="314" y="282" type="line" smooth="yes"/>
      <point x="314" y="249"/>
      <point x="289" y="227"/>
      <point x="257" y="227" type="curve"/>
      <point x="214" y="227"/>
      <point x="190" y="259"/>
      <point x="190" y="354" type="curve"/>
      <point x="190" y="450"/>
      <point x="218" y="480"/>
      <point x="257" y="480" type="curve"/>
      <point x="282" y="480"/>
      <point x="297" y="469"/>
    </contour>
    <contour>
      <point x="542" y="631" type="curve"/>
      <point x="542" y="676" type="line"/>
      <point x="542" y="685"/>
      <point x="537" y="691"/>
      <point x="528" y="691" type="curve"/>
      <point x="232" y="691" type="line" smooth="yes"/>
      <point x="223" y="691"/>
      <point x="218" y="685"/>
      <point x="218" y="674" type="curve"/>
      <point x="218" y="629" type="line" smooth="yes"/>
      <point x="218" y="617"/>
      <point x="223" y="611"/>
      <point x="237" y="611" type="curve"/>
      <point x="518" y="611" type="line" smooth="yes"/>
      <point x="534" y="611"/>
      <point x="542" y="617"/>
    </contour>
    <contour>
      <point x="480" y="20" type="curve"/>
      <point x="480" y="74" type="line"/>
      <point x="480" y="83"/>
      <point x="475" y="89"/>
      <point x="466" y="89" type="curve"/>
      <point x="68" y="89" type="line" smooth="yes"/>
      <point x="60" y="89"/>
      <point x="55" y="83"/>
      <point x="55" y="72" type="curve"/>
      <point x="55" y="18" type="line" smooth="yes"/>
      <point x="55" y="5"/>
      <point x="59" y="0"/>
      <point x="73" y="0" type="curve"/>
      <point x="456" y="0" type="line" smooth="yes"/>
      <point x="472" y="0"/>
      <point x="480" y="5"/>
    </contour>
  </outline>
</glyph>
<glyph name="published" format="2">
  <advance width="830"/>
  <unicode hex="2117"/>
  <outline>
    <contour>
      <point x="415" y="-10" type="curve"/>
      <point x="415" y="-10" type="line"/>
      <point x="625" y="-10"/>
      <point x="796" y="159"/>
      <point x="796" y="371" type="curve"/>
      <point x="796" y="581"/>
      <point x="625" y="752"/>
      <point x="415" y="752" type="curve"/>
      <point x="204" y="752"/>
      <point x="34" y="581"/>
      <point x="34" y="371" type="curve"/>
      <point x="34" y="159"/>
      <point x="204" y="-10"/>
    </contour>
    <contour>
      <point x="415" y="91" type="curve"/>
      <point x="415" y="91" type="line"/>
      <point x="249" y="91"/>
      <point x="146" y="200"/>
      <point x="146" y="371" type="curve"/>
      <point x="146" y="540"/>
      <point x="249" y="652"/>
      <point x="415" y="652" type="curve"/>
      <point x="578" y="652"/>
      <point x="684" y="540"/>
      <point x="684" y="371" type="curve"/>
      <point x="684" y="200"/>
      <point x="578" y="91"/>
    </contour>
    <contour>
      <point x="613" y="432" type="curve"/>
      <point x="613" y="432" type="line"/>
      <point x="613" y="526"/>
      <point x="541" y="568"/>
      <point x="453" y="568" type="curve"/>
      <point x="271" y="568" type="line" smooth="yes"/>
      <point x="265" y="568"/>
      <point x="261" y="563"/>
      <point x="261" y="556" type="curve"/>
      <point x="261" y="187" type="line" smooth="yes"/>
      <point x="261" y="179"/>
      <point x="264" y="174"/>
      <point x="275" y="174" type="curve"/>
      <point x="364" y="174" type="line" smooth="yes"/>
      <point x="376" y="174"/>
      <point x="382" y="179"/>
      <point x="382" y="190" type="curve"/>
      <point x="382" y="295" type="line" smooth="yes"/>
      <point x="382" y="299"/>
      <point x="383" y="301"/>
      <point x="387" y="301" type="curve"/>
      <point x="467" y="301" type="line" smooth="yes"/>
      <point x="554" y="301"/>
      <point x="613" y="347"/>
    </contour>
    <contour>
      <point x="490" y="434" type="curve"/>
      <point x="490" y="434" type="line"/>
      <point x="490" y="403"/>
      <point x="475" y="385"/>
      <point x="449" y="385" type="curve"/>
      <point x="390" y="385" type="line" smooth="yes"/>
      <point x="384" y="385"/>
      <point x="382" y="389"/>
      <point x="382" y="397" type="curve"/>
      <point x="382" y="472" type="line" smooth="yes"/>
      <point x="382" y="480"/>
      <point x="385" y="482"/>
      <point x="393" y="482" type="curve"/>
      <point x="446" y="482" type="line" smooth="yes"/>
      <point x="470" y="482"/>
      <point x="490" y="468"/>
    </contour>
  </outline>
</glyph>
<glyph name="servicemark" format="2">
  <advance width="1050"/>
  <unicode hex="2120"/>
  <outline>
    <contour>
      <point x="309" y="617" type="curve"/>
      <point x="309" y="617" type="line"/>
      <point x="318" y="609"/>
      <point x="321" y="608"/>
      <point x="328" y="612" type="curve"/>
      <point x="396" y="662" type="line" smooth="yes"/>
      <point x="404" y="668"/>
      <point x="399" y="675"/>
      <point x="396" y="681" type="curve"/>
      <point x="367" y="721"/>
      <point x="296" y="748"/>
      <point x="222" y="748" type="curve" smooth="yes"/>
      <point x="104" y="748"/>
      <point x="29" y="681"/>
      <point x="29" y="600" type="curve" smooth="yes"/>
      <point x="29" y="534"/>
      <point x="77" y="480"/>
      <point x="152" y="461" type="curve" smooth="yes"/>
      <point x="247" y="438" type="line" smooth="yes"/>
      <point x="274" y="432"/>
      <point x="286" y="419"/>
      <point x="286" y="404" type="curve" smooth="yes"/>
      <point x="286" y="381"/>
      <point x="256" y="368"/>
      <point x="211" y="368" type="curve" smooth="yes"/>
      <point x="161" y="368"/>
      <point x="137" y="382"/>
      <point x="109" y="418" type="curve" smooth="yes"/>
      <point x="104" y="424"/>
      <point x="97" y="427"/>
      <point x="86" y="419" type="curve" smooth="yes"/>
      <point x="21" y="375" type="line"/>
      <point x="13" y="368"/>
      <point x="13" y="363"/>
      <point x="18" y="354" type="curve" smooth="yes"/>
      <point x="47" y="305"/>
      <point x="130" y="272"/>
      <point x="221" y="272" type="curve" smooth="yes"/>
      <point x="344" y="272"/>
      <point x="421" y="332"/>
      <point x="421" y="424" type="curve" smooth="yes"/>
      <point x="421" y="489"/>
      <point x="385" y="541"/>
      <point x="307" y="561" type="curve" smooth="yes"/>
      <point x="203" y="587" type="line" smooth="yes"/>
      <point x="172" y="595"/>
      <point x="163" y="608"/>
      <point x="163" y="619" type="curve" smooth="yes"/>
      <point x="163" y="635"/>
      <point x="180" y="651"/>
      <point x="227" y="651" type="curve" smooth="yes"/>
      <point x="276" y="651"/>
      <point x="294" y="634"/>
    </contour>
    <contour>
      <point x="483" y="278" type="curve"/>
      <point x="483" y="278" type="line"/>
      <point x="566" y="278" type="line" smooth="yes"/>
      <point x="577" y="278"/>
      <point x="580" y="281"/>
      <point x="580" y="292" type="curve" smooth="yes"/>
      <point x="580" y="568" type="line" smooth="yes"/>
      <point x="580" y="576"/>
      <point x="584" y="579"/>
      <point x="587" y="569" type="curve" smooth="yes"/>
      <point x="677" y="289" type="line"/>
      <point x="680" y="282"/>
      <point x="685" y="278"/>
      <point x="692" y="278" type="curve" smooth="yes"/>
      <point x="758" y="278" type="line" smooth="yes"/>
      <point x="765" y="278"/>
      <point x="770" y="282"/>
      <point x="773" y="289" type="curve"/>
      <point x="863" y="574" type="line" smooth="yes"/>
      <point x="865" y="581"/>
      <point x="870" y="581"/>
      <point x="870" y="574" type="curve" smooth="yes"/>
      <point x="870" y="294" type="line" smooth="yes"/>
      <point x="870" y="283"/>
      <point x="874" y="278"/>
      <point x="887" y="278" type="curve" smooth="yes"/>
      <point x="992" y="278" type="line" smooth="yes"/>
      <point x="1007" y="278"/>
      <point x="1012" y="283"/>
      <point x="1012" y="296" type="curve" smooth="yes"/>
      <point x="1012" y="729" type="line" smooth="yes"/>
      <point x="1012" y="737"/>
      <point x="1008" y="742"/>
      <point x="1001" y="742" type="curve" smooth="yes"/>
      <point x="820" y="742" type="line" smooth="yes"/>
      <point x="812" y="742"/>
      <point x="807" y="735"/>
      <point x="803" y="724" type="curve"/>
      <point x="745" y="532" type="line" smooth="yes"/>
      <point x="743" y="526"/>
      <point x="740" y="525"/>
      <point x="737" y="532" type="curve"/>
      <point x="672" y="731" type="line" smooth="yes"/>
      <point x="669" y="739"/>
      <point x="665" y="742"/>
      <point x="655" y="742" type="curve" smooth="yes"/>
      <point x="480" y="742" type="line" smooth="yes"/>
      <point x="470" y="742"/>
      <point x="467" y="737"/>
      <point x="467" y="727" type="curve" smooth="yes"/>
      <point x="467" y="296" type="line" smooth="yes"/>
      <point x="467" y="285"/>
      <point x="473" y="278"/>
    </contour>
  </outline>
</glyph>
<glyph name="five.numr" format="2">
  <advance width="401"/>
  <outline>
    <contour>
      <point x="350" y="743" type="curve" smooth="yes"/>
      <point x="78" y="743" type="line" smooth="yes"/>
      <point x="56" y="743"/>
      <point x="51" y="738"/>
      <point x="50" y="724" type="curve" smooth="yes"/>
      <point x="32" y="529" type="line"/>
      <point x="30" y="518"/>
      <point x="30" y="511"/>
      <point x="40" y="506" type="curve" smooth="yes"/>
      <point x="115" y="465" type="line" smooth="yes"/>
      <point x="124" y="460"/>
      <point x="125" y="460"/>
      <point x="133" y="464" type="curve" smooth="yes"/>
      <point x="162" y="477"/>
      <point x="177" y="481"/>
      <point x="196" y="481" type="curve" smooth="yes"/>
      <point x="245" y="481"/>
      <point x="266" y="453"/>
      <point x="266" y="424" type="curve" smooth="yes"/>
      <point x="266" y="393"/>
      <point x="241" y="368"/>
      <point x="194" y="368" type="curve" smooth="yes"/>
      <point x="149" y="368"/>
      <point x="126" y="392"/>
      <point x="101" y="422" type="curve"/>
      <point x="95" y="428"/>
      <point x="88" y="430"/>
      <point x="80" y="424" type="curve"/>
      <point x="12" y="379" type="line" smooth="yes"/>
      <point x="0" y="371"/>
      <point x="4" y="362"/>
      <point x="11" y="352" type="curve" smooth="yes"/>
      <point x="43" y="304"/>
      <point x="118" y="270"/>
      <point x="210" y="270" type="curve" smooth="yes"/>
      <point x="328" y="270"/>
      <point x="406" y="328"/>
      <point x="406" y="428" type="curve" smooth="yes"/>
      <point x="406" y="524"/>
      <point x="333" y="580"/>
      <point x="232" y="580" type="curve" smooth="yes"/>
      <point x="204" y="580"/>
      <point x="185" y="576"/>
      <point x="152" y="567" type="curve" smooth="yes"/>
      <point x="145" y="565"/>
      <point x="140" y="568"/>
      <point x="142" y="576" type="curve"/>
      <point x="147" y="618" type="line"/>
      <point x="147" y="626"/>
      <point x="152" y="629"/>
      <point x="160" y="629" type="curve" smooth="yes"/>
      <point x="348" y="629" type="line" smooth="yes"/>
      <point x="360" y="629"/>
      <point x="365" y="633"/>
      <point x="366" y="644" type="curve"/>
      <point x="369" y="724" type="line" smooth="yes"/>
      <point x="370" y="740"/>
      <point x="369" y="743"/>
    </contour>
  </outline>
</glyph>
<glyph name="one.dnom" format="2">
  <advance width="299"/>
  <outline>
    <contour>
      <point x="278" y="103" type="curve"/>
      <point x="278" y="103" type="line"/>
      <point x="221" y="103" type="line" smooth="yes"/>
      <point x="217" y="103"/>
      <point x="214" y="106"/>
      <point x="214" y="111" type="curve" smooth="yes"/>
      <point x="214" y="454" type="line" smooth="yes"/>
      <point x="214" y="462"/>
      <point x="210" y="467"/>
      <point x="203" y="467" type="curve" smooth="yes"/>
      <point x="149" y="467" type="line" smooth="yes"/>
      <point x="137" y="467"/>
      <point x="131" y="464"/>
      <point x="118" y="458" type="curve" smooth="yes"/>
      <point x="5" y="401" type="line" smooth="yes"/>
      <point x="-4" y="397"/>
      <point x="-7" y="394"/>
      <point x="-7" y="383" type="curve" smooth="yes"/>
      <point x="-7" y="330" type="line" smooth="yes"/>
      <point x="-7" y="318"/>
      <point x="-1" y="313"/>
      <point x="10" y="316" type="curve"/>
      <point x="61" y="327" type="line" smooth="yes"/>
      <point x="69" y="329"/>
      <point x="71" y="326"/>
      <point x="71" y="319" type="curve" smooth="yes"/>
      <point x="71" y="109" type="line" smooth="yes"/>
      <point x="71" y="105"/>
      <point x="68" y="103"/>
      <point x="64" y="103" type="curve" smooth="yes"/>
      <point x="8" y="103" type="line" smooth="yes"/>
      <point x="-1" y="103"/>
      <point x="-6" y="100"/>
      <point x="-6" y="91" type="curve" smooth="yes"/>
      <point x="-6" y="13" type="line" smooth="yes"/>
      <point x="-6" y="5"/>
      <point x="-2" y="0"/>
      <point x="9" y="0" type="curve" smooth="yes"/>
      <point x="276" y="0" type="line" smooth="yes"/>
      <point x="287" y="0"/>
      <point x="292" y="6"/>
      <point x="292" y="14" type="curve" smooth="yes"/>
      <point x="292" y="91" type="line" smooth="yes"/>
      <point x="292" y="100"/>
      <point x="287" y="103"/>
    </contour>
  </outline>
</glyph>
<glyph name="zero.numr" format="2">
  <advance width="416"/>
  <outline>
    <contour>
      <point x="207" y="753" type="curve"/>
      <point x="207" y="753" type="line"/>
      <point x="86" y="753"/>
      <point x="-2" y="650"/>
      <point x="-2" y="511" type="curve" smooth="yes"/>
      <point x="-2" y="373"/>
      <point x="84" y="274"/>
      <point x="207" y="274" type="curve" smooth="yes"/>
      <point x="329" y="274"/>
      <point x="414" y="373"/>
      <point x="414" y="511" type="curve" smooth="yes"/>
      <point x="414" y="650"/>
      <point x="327" y="753"/>
    </contour>
    <contour>
      <point x="206" y="372" type="curve"/>
      <point x="206" y="372" type="line"/>
      <point x="160" y="372"/>
      <point x="143" y="409"/>
      <point x="143" y="510" type="curve" smooth="yes"/>
      <point x="143" y="615"/>
      <point x="161" y="656"/>
      <point x="206" y="656" type="curve" smooth="yes"/>
      <point x="251" y="656"/>
      <point x="269" y="616"/>
      <point x="269" y="510" type="curve" smooth="yes"/>
      <point x="269" y="409"/>
      <point x="253" y="372"/>
    </contour>
  </outline>
</glyph>
